<svg width="90" height="90" viewBox="0 0 90 90" fill="none" xmlns="http://www.w3.org/2000/svg">
<circle cx="45" cy="45" r="45" fill="black"/>
<path d="M53.1516 71L41.6016 50.6H36.6516V71H26.1516V18.65H45.8016C49.8516 18.65 53.3016 19.375 56.1516 20.825C59.0016 22.225 61.1266 24.15 62.5266 26.6C63.9766 29 64.7016 31.7 64.7016 34.7C64.7016 38.15 63.7016 41.275 61.7016 44.075C59.7016 46.825 56.7266 48.725 52.7766 49.775L65.3016 71H53.1516ZM36.6516 42.725H45.4266C48.2766 42.725 50.4016 42.05 51.8016 40.7C53.2016 39.3 53.9016 37.375 53.9016 34.925C53.9016 32.525 53.2016 30.675 51.8016 29.375C50.4016 28.025 48.2766 27.35 45.4266 27.35H36.6516V42.725Z" fill="white"/>
</svg>
